# xmcd
#
# Track frame offsets:
#	150
#	15272
#	30719
#	47571
#	62866
#	77210
#	91005
#	110594
#	126776
#	142873
#	159463
#	174830
#	175526
#	176243
#	176971
#	177989
#	178797
#	179557
#	180282
#	181048
#	181694
#	182335
#	183030
#	184030
#	184789
#	185504
#	186215
#	186929
#
# Disc length: 2505 seconds
#
# Revision: 1
# Processed by: cddbd v1.5.2PL0 Copyright (c) Steve Scherf et al.
# Submitted via: audiograbber 1.83.01
#
DISCID=6809c71c
DTITLE=Various Artist - CDX Volume 602 (August 18, 2014)
DYEAR=2014
DGENRE=Country
TTITLE0=Tyler Farr - A Guy Walks Into A Bar
TTITLE1=Brad Paisley (with Colt Ford) - River Bank [Remix] 
TTITLE2=Jake Owen - What We Ain't Got
TTITLE3=Kelleigh Bannen - You Are What You Love [Radio Edit]
TTITLE4=Montgomery Gentry - Headlights
TTITLE5=Tim Sweeney - Every Friday Night
TTITLE6=Of Rocks and Roots - Fade Out
TTITLE7=Tim Cadiere - Hop In My Truck
TTITLE8=Casi Joy - Old Town Lane
TTITLE9=Shelby County Line - Somethin' Bout You
TTITLE10=Ashliegh Lisset - Target On My Heart
TTITLE11=Kayla Adams - Liner - Home Town Country
TTITLE12=Kayla Adams - Liner - Kickin' Country
TTITLE13=Kayla Adams - Liner - More Of The Country You Love
TTITLE14=Kayla Adams - Liner - My New Single
TTITLE15=Kayla Adams - Liner - Super Country Hits
TTITLE16=Kayla Adams - Liner - The Best In Country
TTITLE17=Kayla Adams - Liner - Today's Best Country
TTITLE18=Kayla Adams - Liner - Today's Hot Country
TTITLE19=Taria - Liner - Home Town Country
TTITLE20=Taria - Liner - Kickin' Country
TTITLE21=Taria - Liner - More Country You Love
TTITLE22=Taria - Liner - My New Single
TTITLE23=Taria - Liner - Super Country
TTITLE24=Taria - Liner - The Best On Country
TTITLE25=Taria - Liner - Today's Best Country
TTITLE26=Taria - Liner - Today's Hot Country Music
TTITLE27=Brandon Chase - Liner - The Fight To End Human Trafficking
EXTD=
EXTT0=
EXTT1=
EXTT2=
EXTT3=
EXTT4=
EXTT5=
EXTT6=
EXTT7=
EXTT8=
EXTT9=
EXTT10=
EXTT11=
EXTT12=
EXTT13=
EXTT14=
EXTT15=
EXTT16=
EXTT17=
EXTT18=
EXTT19=
EXTT20=
EXTT21=
EXTT22=
EXTT23=
EXTT24=
EXTT25=
EXTT26=
EXTT27=
PLAYORDER=
